<svg xmlns="http://www.w3.org/2000/svg" viewBox="0 0 200 180" fill="none">
  <!-- 文件背景 -->
  <rect x="40" y="20" width="120" height="140" rx="8" fill="#F5F5F5" stroke="#D9D9D9" stroke-width="1.5"/>
  <rect x="52" y="38" width="60" height="6" rx="3" fill="#E8E8E8"/>
  <rect x="52" y="52" width="96" height="4" rx="2" fill="#EFEFEF"/>
  <rect x="52" y="64" width="80" height="4" rx="2" fill="#EFEFEF"/>
  <rect x="52" y="76" width="88" height="4" rx="2" fill="#EFEFEF"/>
  <!-- 印章圆形轮廓 -->
  <circle cx="130" cy="105" r="36" stroke="#E60000" stroke-width="2.5" stroke-dasharray="6 3" fill="none" opacity="0.5"/>
  <circle cx="130" cy="105" r="28" stroke="#E60000" stroke-width="1.5" fill="none" opacity="0.3"/>
  <!-- 五角星 -->
  <polygon points="130,85 133.5,96 145,96 136,103 139.5,114 130,107 120.5,114 124,103 115,96 126.5,96" fill="#E60000" opacity="0.4"/>
  <!-- 人物 -->
  <circle cx="155" cy="130" r="10" fill="#BFBFBF" opacity="0.6"/>
  <path d="M140 158 Q155 140 170 158" fill="#BFBFBF" opacity="0.6"/>
  <!-- 箭头下载 -->
  <path d="M155 120 L155 112 M151 117 L155 121 L159 117" stroke="#595959" stroke-width="1.5" stroke-linecap="round" stroke-linejoin="round" opacity="0.7"/>
</svg>
